solid OpenSCAD_Model
  facet normal 0 -1 0
    outer loop
      vertex 0 0 0
      vertex 12.5 0 0
      vertex 12.5 0 0.67
    endloop
  endfacet
  facet normal 0 -1 0
    outer loop
      vertex 0 0 0.67
      vertex 0 0 0
      vertex 12.5 0 0.67
    endloop
  endfacet
  facet normal 0 0 -1
    outer loop
      vertex 13.65 4.05 0
      vertex 15 12 0
      vertex 15 2.5 0
    endloop
  endfacet
  facet normal 0 0 -1
    outer loop
      vertex 0 0 0
      vertex 15 2.5 0
      vertex 12.5 0 0
    endloop
  endfacet
  facet normal 0 0 -1
    outer loop
      vertex 1.212 11.39 0
      vertex 0 12 0
      vertex 13.512 11.39 0
    endloop
  endfacet
  facet normal 0 0 -1
    outer loop
      vertex 0 12 0
      vertex 0.988 2.282 0
      vertex 0 0 0
    endloop
  endfacet
  facet normal 0 0 -1
    outer loop
      vertex 0.988 2.282 0
      vertex 1.212 2.21 0
      vertex 0 0 0
    endloop
  endfacet
  facet normal 0 0 -1
    outer loop
      vertex 13.65 11.2 0
      vertex 15 12 0
      vertex 13.65 4.05 0
    endloop
  endfacet
  facet normal 0 0 -1
    outer loop
      vertex 0 0 0
      vertex 11.862 2.21 0
      vertex 15 2.5 0
    endloop
  endfacet
  facet normal 0 0 -1
    outer loop
      vertex 11.862 2.21 0
      vertex 13.512 3.86 0
      vertex 15 2.5 0
    endloop
  endfacet
  facet normal 0 0 -1
    outer loop
      vertex 13.512 3.86 0
      vertex 13.65 4.05 0
      vertex 15 2.5 0
    endloop
  endfacet
  facet normal 0 0 -1
    outer loop
      vertex 13.512 11.39 0
      vertex 15 12 0
      vertex 13.65 11.2 0
    endloop
  endfacet
  facet normal 0 0 -1
    outer loop
      vertex 0 12 0
      vertex 15 12 0
      vertex 13.512 11.39 0
    endloop
  endfacet
  facet normal 0 0 -1
    outer loop
      vertex 0 12 0
      vertex 1.212 11.39 0
      vertex 0.988 11.318 0
    endloop
  endfacet
  facet normal 0 0 -1
    outer loop
      vertex 0 12 0
      vertex 0.988 11.318 0
      vertex 0.988 2.282 0
    endloop
  endfacet
  facet normal 0 0 -1
    outer loop
      vertex 11.862 2.21 0
      vertex 0 0 0
      vertex 1.212 2.21 0
    endloop
  endfacet
  facet normal -1 0 0
    outer loop
      vertex 0 0 0.67
      vertex 0 12 0.67
      vertex 0 0 0
    endloop
  endfacet
  facet normal -1 0 0
    outer loop
      vertex 0 0 0
      vertex 0 12 0.67
      vertex 0 12 0
    endloop
  endfacet
  facet normal 0 0 1
    outer loop
      vertex 0 0 0.67
      vertex 12.5 0 0.67
      vertex 15 2.5 0.67
    endloop
  endfacet
  facet normal 0 0 1
    outer loop
      vertex 11.862 2.21 0.67
      vertex 0 0 0.67
      vertex 15 2.5 0.67
    endloop
  endfacet
  facet normal 0 0 1
    outer loop
      vertex 0 12 0.67
      vertex 0 0 0.67
      vertex 0.988 2.282 0.67
    endloop
  endfacet
  facet normal 0 0 1
    outer loop
      vertex 0 12 0.67
      vertex 0.988 2.282 0.67
      vertex 0.988 11.318 0.67
    endloop
  endfacet
  facet normal 0 0 1
    outer loop
      vertex 0 12 0.67
      vertex 1.212 11.39 0.67
      vertex 15 12 0.67
    endloop
  endfacet
  facet normal 0 0 1
    outer loop
      vertex 0 12 0.67
      vertex 0.988 11.318 0.67
      vertex 1.212 11.39 0.67
    endloop
  endfacet
  facet normal 0 0 1
    outer loop
      vertex 13.512 11.39 0.67
      vertex 13.65 11.2 0.67
      vertex 15 12 0.67
    endloop
  endfacet
  facet normal 0 0 1
    outer loop
      vertex 15 12 0.67
      vertex 13.65 4.05 0.67
      vertex 15 2.5 0.67
    endloop
  endfacet
  facet normal 0 0 1
    outer loop
      vertex 13.65 4.05 0.67
      vertex 13.512 3.86 0.67
      vertex 15 2.5 0.67
    endloop
  endfacet
  facet normal 0 0 1
    outer loop
      vertex 13.512 3.86 0.67
      vertex 11.862 2.21 0.67
      vertex 15 2.5 0.67
    endloop
  endfacet
  facet normal 0 0 1
    outer loop
      vertex 11.862 2.21 0.67
      vertex 1.212 2.21 0.67
      vertex 0 0 0.67
    endloop
  endfacet
  facet normal 0 0 1
    outer loop
      vertex 0.988 2.282 0.67
      vertex 0 0 0.67
      vertex 1.212 2.21 0.67
    endloop
  endfacet
  facet normal 0 0 1
    outer loop
      vertex 1.212 11.39 0.67
      vertex 13.512 11.39 0.67
      vertex 15 12 0.67
    endloop
  endfacet
  facet normal 0 0 1
    outer loop
      vertex 13.65 11.2 0.67
      vertex 13.65 4.05 0.67
      vertex 15 12 0.67
    endloop
  endfacet
  facet normal 0.707107 -0.707107 0
    outer loop
      vertex 12.5 0 0
      vertex 15 2.5 0
      vertex 15 2.5 0.67
    endloop
  endfacet
  facet normal 0.707107 -0.707107 0
    outer loop
      vertex 12.5 0 0.67
      vertex 12.5 0 0
      vertex 15 2.5 0.67
    endloop
  endfacet
  facet normal 1 0 0
    outer loop
      vertex 15 2.5 0
      vertex 15 12 0
      vertex 15 12 0.67
    endloop
  endfacet
  facet normal 1 0 0
    outer loop
      vertex 15 2.5 0.67
      vertex 15 2.5 0
      vertex 15 12 0.67
    endloop
  endfacet
  facet normal 0 1 0
    outer loop
      vertex 0 12 0.67
      vertex 15 12 0.67
      vertex 0 12 0
    endloop
  endfacet
  facet normal 0 1 0
    outer loop
      vertex 0 12 0
      vertex 15 12 0.67
      vertex 15 12 0
    endloop
  endfacet
  facet normal 0.306009 0.952029 0
    outer loop
      vertex 0.988 2.282 0.67
      vertex 1.212 2.21 0.67
      vertex 0.988 2.282 0
    endloop
  endfacet
  facet normal 0.306009 0.952029 0
    outer loop
      vertex 0.988 2.282 0
      vertex 1.212 2.21 0.67
      vertex 1.212 2.21 0
    endloop
  endfacet
  facet normal 1 0 0
    outer loop
      vertex 0.988 2.282 0
      vertex 0.988 11.318 0
      vertex 0.988 11.318 0.67
    endloop
  endfacet
  facet normal 1 0 0
    outer loop
      vertex 0.988 2.282 0.67
      vertex 0.988 2.282 0
      vertex 0.988 11.318 0.67
    endloop
  endfacet
  facet normal 0.306009 -0.952029 0
    outer loop
      vertex 0.988 11.318 0
      vertex 1.212 11.39 0
      vertex 1.212 11.39 0.67
    endloop
  endfacet
  facet normal 0.306009 -0.952029 0
    outer loop
      vertex 0.988 11.318 0.67
      vertex 0.988 11.318 0
      vertex 1.212 11.39 0.67
    endloop
  endfacet
  facet normal 0 -1 0
    outer loop
      vertex 1.212 11.39 0
      vertex 13.512 11.39 0
      vertex 13.512 11.39 0.67
    endloop
  endfacet
  facet normal 0 -1 0
    outer loop
      vertex 1.212 11.39 0.67
      vertex 1.212 11.39 0
      vertex 13.512 11.39 0.67
    endloop
  endfacet
  facet normal -0.809104 -0.587665 0
    outer loop
      vertex 13.65 11.2 0
      vertex 13.65 11.2 0.67
      vertex 13.512 11.39 0
    endloop
  endfacet
  facet normal -0.809104 -0.587665 0
    outer loop
      vertex 13.512 11.39 0
      vertex 13.65 11.2 0.67
      vertex 13.512 11.39 0.67
    endloop
  endfacet
  facet normal -1 0 0
    outer loop
      vertex 13.65 4.05 0.67
      vertex 13.65 11.2 0.67
      vertex 13.65 4.05 0
    endloop
  endfacet
  facet normal -1 0 0
    outer loop
      vertex 13.65 4.05 0
      vertex 13.65 11.2 0.67
      vertex 13.65 11.2 0
    endloop
  endfacet
  facet normal -0.809104 0.587665 0
    outer loop
      vertex 13.512 3.86 0.67
      vertex 13.65 4.05 0.67
      vertex 13.512 3.86 0
    endloop
  endfacet
  facet normal -0.809104 0.587665 0
    outer loop
      vertex 13.512 3.86 0
      vertex 13.65 4.05 0.67
      vertex 13.65 4.05 0
    endloop
  endfacet
  facet normal -0.707107 0.707107 0
    outer loop
      vertex 11.862 2.21 0.67
      vertex 13.512 3.86 0.67
      vertex 11.862 2.21 0
    endloop
  endfacet
  facet normal -0.707107 0.707107 0
    outer loop
      vertex 11.862 2.21 0
      vertex 13.512 3.86 0.67
      vertex 13.512 3.86 0
    endloop
  endfacet
  facet normal 0 1 0
    outer loop
      vertex 1.212 2.21 0.67
      vertex 11.862 2.21 0.67
      vertex 1.212 2.21 0
    endloop
  endfacet
  facet normal 0 1 0
    outer loop
      vertex 1.212 2.21 0
      vertex 11.862 2.21 0.67
      vertex 11.862 2.21 0
    endloop
  endfacet
endsolid OpenSCAD_Model
